<?xml version="1.0" standalone="no"?>
<!DOCTYPE svg PUBLIC "-//W3C//DTD SVG 20010904//EN"
 "http://www.w3.org/TR/2001/REC-SVG-20010904/DTD/svg10.dtd">
<svg version="1.0" xmlns="http://www.w3.org/2000/svg"
 width="700.000000pt" height="700.000000pt" viewBox="0 0 700.000000 700.000000"
 preserveAspectRatio="xMidYMid meet">
<metadata>
Created by potrace 1.14, written by Peter Selinger 2001-2017
</metadata>
<g transform="translate(0.000000,700.000000) scale(0.100000,-0.100000)"
fill="#000000" stroke="none">
<path d="M3235 6690 c-1248 -111 -2309 -920 -2740 -2090 -80 -217 -135 -444
-171 -705 -25 -183 -25 -607 0 -790 72 -523 232 -953 512 -1375 746 -1125
2119 -1659 3434 -1335 808 200 1498 702 1949 1420 77 122 227 426 275 555 273
745 273 1518 -1 2260 -47 129 -181 403 -255 525 -322 527 -790 955 -1335 1220
-316 154 -646 253 -1003 300 -138 19 -526 27 -665 15z m-293 -2489 l3 -608
107 150 c59 83 271 357 470 609 l363 458 373 0 c204 0 372 -2 372 -5 0 -2
-223 -284 -495 -626 -386 -484 -493 -624 -484 -635 6 -7 271 -334 589 -726
l579 -713 -402 -3 c-221 -1 -407 0 -413 2 -6 2 -181 214 -388 470 -208 256
-381 466 -385 466 -3 -1 -70 -83 -148 -182 l-143 -181 0 -289 0 -288 -320 0
-320 0 0 1355 0 1355 320 0 320 0 2 -609z"/>
</g>
</svg>
