<svg width="17" height="18" viewBox="0 0 17 18" fill="none" xmlns="http://www.w3.org/2000/svg">
<path d="M14.8748 2.625V11.4792C14.8748 12.1367 14.6136 12.7673 14.1487 13.2322C13.6838 13.6971 13.0532 13.9583 12.3957 13.9583C11.7382 13.9583 11.1076 13.6971 10.6426 13.2322C10.1777 12.7673 9.9165 12.1367 9.9165 11.4792C9.9165 10.8217 10.1777 10.1911 10.6426 9.72613C11.1076 9.2612 11.7382 9 12.3957 9C12.7782 9 13.1394 9.085 13.4582 9.24083V5.08292L6.37484 6.59167V12.8958C6.37484 13.5533 6.11364 14.1839 5.64871 14.6489C5.18377 15.1138 4.55319 15.375 3.89567 15.375C3.23815 15.375 2.60757 15.1138 2.14263 14.6489C1.6777 14.1839 1.4165 13.5533 1.4165 12.8958C1.4165 12.2383 1.6777 11.6077 2.14263 11.1428C2.60757 10.6779 3.23815 10.4167 3.89567 10.4167C4.27817 10.4167 4.63942 10.5017 4.95817 10.6575V4.75L14.8748 2.625Z" fill="white" fill-opacity="0.79"/>
</svg>
