<svg width="35" height="35" viewBox="0 0 35 35" fill="none" xmlns="http://www.w3.org/2000/svg">
<path d="M23.3333 27.7084C22.5313 27.7084 21.8444 27.4225 21.2727 26.8509C20.701 26.2792 20.4157 25.5928 20.4167 24.7917V10.2084C20.4167 9.40627 20.7025 8.7194 21.2742 8.14773C21.8458 7.57606 22.5322 7.29072 23.3333 7.29169C24.1354 7.29169 24.8223 7.57752 25.394 8.14919C25.9656 8.72086 26.251 9.40725 26.25 10.2084V24.7917C26.25 25.5938 25.9642 26.2807 25.3925 26.8523C24.8208 27.424 24.1344 27.7093 23.3333 27.7084ZM11.6667 27.7084C10.8646 27.7084 10.1777 27.4225 9.60604 26.8509C9.03438 26.2792 8.74903 25.5928 8.75 24.7917V10.2084C8.75 9.40627 9.03584 8.7194 9.6075 8.14773C10.1792 7.57606 10.8656 7.29072 11.6667 7.29169C12.4688 7.29169 13.1556 7.57752 13.7273 8.14919C14.299 8.72086 14.5843 9.40725 14.5833 10.2084V24.7917C14.5833 25.5938 14.2975 26.2807 13.7258 26.8523C13.1542 27.424 12.4678 27.7093 11.6667 27.7084Z" fill="black"/>
</svg>
